<svg width="16" height="12" viewBox="0 0 16 12" fill="none" xmlns="http://www.w3.org/2000/svg">
<g clip-path="url(#clip0_726_1046)">
<mask id="mask0_726_1046" style="mask-type:alpha" maskUnits="userSpaceOnUse" x="0" y="0" width="16" height="12">
<path d="M14.4762 0H1.52381C0.682233 0 0 0.716344 0 1.6V10.4C0 11.2837 0.682233 12 1.52381 12H14.4762C15.3178 12 16 11.2837 16 10.4V1.6C16 0.716344 15.3178 0 14.4762 0Z" fill="white"/>
</mask>
<g mask="url(#mask0_726_1046)">
<path d="M14.4762 0H1.52381C0.682233 0 0 0.716344 0 1.6V10.4C0 11.2837 0.682233 12 1.52381 12H14.4762C15.3178 12 16 11.2837 16 10.4V1.6C16 0.716344 15.3178 0 14.4762 0Z" fill="white"/>
<path fill-rule="evenodd" clip-rule="evenodd" d="M0 0H3.04762V3.2H0V0ZM4.57143 0H7.61905V3.2H4.57143V0ZM0 4.8H3.04762V8H0V4.8ZM4.57143 4.8H7.61905V8H4.57143V4.8ZM7.61905 0H16V1.6H7.61905V0ZM7.61905 3.2H16V4.8H7.61905V3.2Z" fill="#005CB2"/>
<path fill-rule="evenodd" clip-rule="evenodd" d="M0 6.39999H16V7.99999H0V6.39999ZM3.04762 6.39999H4.57143V7.99999H3.04762V6.39999ZM0 9.59999H16V11.2H0V9.59999Z" fill="#005CB2"/>
</g>
</g>
<defs>
<clipPath id="clip0_726_1046">
<rect width="16" height="12" fill="white"/>
</clipPath>
</defs>
</svg>
