<svg width="6" height="8" viewBox="0 0 6 8" fill="none" xmlns="http://www.w3.org/2000/svg">
<path d="M3.00004 7.75C2.47376 7.3011 1.98595 6.80896 1.54171 6.27875C0.875041 5.4825 0.0833744 4.29666 0.0833744 3.16666C0.0827835 1.98648 0.793477 0.922244 1.88382 0.47058C2.97416 0.0189165 4.22924 0.268848 5.06338 1.10375C5.6119 1.64983 5.91917 2.39266 5.91672 3.16666C5.91672 4.29666 5.12504 5.4825 4.45837 6.27875C4.01413 6.80896 3.52632 7.3011 3.00004 7.75ZM3.00004 1.91666C2.55346 1.91666 2.1408 2.15491 1.91751 2.54166C1.69422 2.92842 1.69422 3.40491 1.91751 3.79167C2.1408 4.17842 2.55346 4.41667 3.00004 4.41667C3.6904 4.41667 4.25004 3.85702 4.25004 3.16666C4.25004 2.47631 3.6904 1.91666 3.00004 1.91666Z" fill="#D9DFE8"/>
</svg>
