<svg width="8" height="8" viewBox="0 0 8 8" fill="none" xmlns="http://www.w3.org/2000/svg">
<path d="M2.52709 7.55625C1.68452 7.55625 0.924916 7.04871 0.602426 6.2703C0.279935 5.49189 0.458063 4.59587 1.05376 3.99999L1.93793 3.11583L2.52709 3.70499L1.64334 4.58874C1.32753 4.90455 1.2042 5.36485 1.31979 5.79625C1.43538 6.22765 1.77235 6.56462 2.20375 6.68021C2.63515 6.79581 3.09545 6.67247 3.41126 6.35666L4.29501 5.47291L4.88418 6.06249L4.00043 6.94624C3.61046 7.33813 3.07995 7.55778 2.52709 7.55625ZM2.82168 5.76749L2.23251 5.17833L5.17876 2.23208L5.76793 2.82124L2.82209 5.76708L2.82168 5.76749ZM6.06293 4.88374L5.47334 4.29458L6.35709 3.41083C6.6772 3.09596 6.80384 2.6336 6.68886 2.19957C6.57388 1.76553 6.23494 1.42651 5.80093 1.31143C5.36692 1.19634 4.90453 1.32288 4.58959 1.64291L3.70543 2.52666L3.11626 1.93749L4.00043 1.05333C4.81504 0.245812 6.12917 0.24869 6.94024 1.05976C7.75131 1.87084 7.75419 3.18496 6.94668 3.99958L6.06293 4.88333V4.88374Z" fill="#E2E6EE"/>
</svg>
