<svg width="8" height="8" viewBox="0 0 8 8" fill="none" xmlns="http://www.w3.org/2000/svg">
<path d="M6.91558 7.33333C3.36074 7.33837 0.662827 4.60813 0.66663 1.08438C0.66663 0.854266 0.853178 0.666672 1.0833 0.666672H2.18303C2.38952 0.666672 2.56493 0.818392 2.59525 1.02264C2.66792 1.51217 2.81045 1.98874 3.01849 2.4378L3.06131 2.53022C3.12085 2.65872 3.08049 2.8114 2.96524 2.8937C2.62467 3.13692 2.49451 3.62649 2.75983 4.00849C3.09278 4.48785 3.51248 4.90746 3.99174 5.24026C4.37372 5.50551 4.86321 5.37537 5.10642 5.03486C5.18878 4.91955 5.34155 4.87917 5.47012 4.93873L5.56212 4.98135C6.0112 5.18938 6.48781 5.33191 6.97739 5.40457C7.18164 5.43488 7.33329 5.61029 7.33329 5.81678V6.91666C7.33329 7.14678 7.14629 7.33333 6.91617 7.33333L6.91558 7.33333Z" fill="#E2E6EE"/>
</svg>
