<svg width="6" height="6" viewBox="0 0 6 6" fill="none" xmlns="http://www.w3.org/2000/svg">
<path d="M1.17814 2.74112C0.52455 2.74112 0.083374 2.28615 0.083374 1.61213C0.083374 1.00552 0.58991 0.5 1.27618 0.5C2.02782 0.5 2.58337 1.10662 2.58337 2.03339C2.58337 4.13971 1.04743 4.98223 0.083374 5.08333V4.15656C0.736969 4.0386 1.47226 3.38143 1.50494 2.65686C1.47226 2.67371 1.34154 2.74112 1.17814 2.74112Z" fill="#79819A"/>
<path d="M4.51148 2.74112C3.85788 2.74112 3.41671 2.28615 3.41671 1.61213C3.41671 1.00552 3.92324 0.5 4.60952 0.5C5.36115 0.5 5.91671 1.10662 5.91671 2.03339C5.91671 4.13971 4.38076 4.98223 3.41671 5.08333V4.15656C4.0703 4.0386 4.8056 3.38143 4.83827 2.65686C4.8056 2.67371 4.67488 2.74112 4.51148 2.74112Z" fill="#79819A"/>
</svg>
