<svg width="16" height="17" viewBox="0 0 16 17" fill="none" xmlns="http://www.w3.org/2000/svg">
<rect y="0.5" width="16" height="16" rx="8" fill="#EA4C89"/>
<path d="M8.00004 12.6667C5.69885 12.6667 3.83337 10.8012 3.83337 8.5C3.83337 6.19881 5.69885 4.33333 8.00004 4.33333C10.3012 4.33333 12.1667 6.19881 12.1667 8.5C12.1642 10.8001 10.3002 12.6641 8.00004 12.6667ZM5.96671 11.2271L5.96462 11.2313C6.91589 11.9439 8.17058 12.1071 9.27254 11.6617C9.11459 10.8122 8.88045 9.9787 8.57296 9.17125C7.86668 9.4175 7.22096 9.81138 6.67879 10.3267C6.41159 10.5797 6.18028 10.868 5.99129 11.1838L5.98837 11.1883V11.1842L5.98087 11.1988L5.97587 11.2071L5.97296 11.2125L5.96587 11.2275L5.96671 11.2271ZM9.99129 8.93542C9.78615 8.93571 9.58125 8.94963 9.37796 8.97708C9.64345 9.71897 9.85239 10.4799 10.003 11.2533C10.7111 10.7429 11.1923 9.97659 11.3446 9.11708C10.9038 8.99546 10.4486 8.93394 9.99129 8.93417V8.93542ZM4.59046 8.48125V8.50458C4.59122 9.30733 4.87526 10.0841 5.39254 10.6979C6.06266 9.66271 7.0539 8.87595 8.21421 8.45833L8.26379 8.44417C8.19004 8.28125 8.12087 8.13583 8.05171 8C6.94001 8.31171 5.79167 8.47355 4.63712 8.48125H4.59046ZM9.86087 8.22875C10.3779 8.23066 10.8937 8.27778 11.4025 8.36958C11.376 7.66476 11.1295 6.98592 10.6975 6.42833C10.1935 6.99206 9.56607 7.43181 8.86421 7.71333L8.87629 7.70833L8.86337 7.71375C8.93796 7.86917 9.00337 8.01458 9.05796 8.14417C9.07087 8.175 9.08171 8.20167 9.09171 8.2275L9.10879 8.26917C9.35852 8.24146 9.60962 8.22796 9.86087 8.22875ZM6.49046 5.44875C5.58434 5.89599 4.92345 6.72233 4.68629 7.70458C5.65728 7.68958 6.62361 7.56689 7.56754 7.33875H7.57296H7.57921L7.58337 7.33333L7.60587 7.32792H7.60837L7.62504 7.32458H7.62879H7.63171L7.64046 7.32208L7.65712 7.31792L7.66671 7.31375L7.67587 7.31125H7.68004H7.68421C7.12879 6.33333 6.55379 5.53625 6.49004 5.44875H6.49046ZM8.00004 5.09957C7.77195 5.09901 7.54435 5.12064 7.32046 5.16417C7.75696 5.76899 8.15751 6.39897 8.52004 7.05083C9.16926 6.81961 9.74828 6.42565 10.2017 5.90667C9.58616 5.38608 8.80621 5.10017 8.00004 5.09957Z" fill="white"/>
</svg>
